<svg xmlns="http://www.w3.org/2000/svg" width="37" height="32" viewBox="0 0 37 32">
    <path fill="#ACABAB" fill-rule="evenodd" d="M13.104 6.244c-1.696 0-3.083-1.405-3.083-3.122C10.02 1.405 11.408 0 13.104 0c1.696 0 3.084 1.405 3.084 3.122 0 1.717-1.388 3.122-3.084 3.122zM29.292 16.39c4.316 0 7.708 3.434 7.708 7.805C37 28.565 33.608 32 29.292 32c-4.317 0-7.709-3.434-7.709-7.805 0-4.37 3.392-7.805 7.709-7.805zm0 13.269c2.929 0 5.395-2.498 5.395-5.464s-2.466-5.463-5.395-5.463c-2.93 0-5.396 2.497-5.396 5.463s2.466 5.464 5.396 5.464zm-8.942-15.61l-3.7-3.747-1.233 1.25c-2.005 2.028-4.625 3.277-7.863 3.277v-3.122c2.313 0 4.163-.936 5.55-2.341l2.93-2.966c.77-.624 1.541-.937 2.466-.937.925 0 1.696.313 2.158.937l4.317 4.37c.617.625.925 1.406.925 2.186 0 .937-.308 1.717-.925 2.185l-4.933 4.371v7.805h-3.084V17.64l3.392-3.59zM7.708 16.39c4.317 0 7.709 3.434 7.709 7.805 0 4.37-3.392 7.805-7.709 7.805C3.392 32 0 28.566 0 24.195c0-4.37 3.392-7.805 7.708-7.805zm0 13.269c2.93 0 5.396-2.498 5.396-5.464s-2.466-5.463-5.396-5.463c-2.929 0-5.396 2.497-5.396 5.463S4.78 29.66 7.708 29.66z"/>
</svg>
