<svg xmlns="http://www.w3.org/2000/svg" width="29" height="32" viewBox="0 0 29 32">
    <path fill="#ACABAB" fill-rule="evenodd" d="M23.87 3.952a.753.753 0 0 1-.37-.096C20.406 2.272 17.73 1.6 14.524 1.6c-3.19 0-6.22.752-8.976 2.256a.823.823 0 0 1-1.095-.32.807.807 0 0 1 .322-1.088A20.349 20.349 0 0 1 14.525 0c3.432 0 6.429.752 9.716 2.432a.78.78 0 0 1 .339 1.072.79.79 0 0 1-.71.448zm-23.06 8.4a.844.844 0 0 1-.467-.144.794.794 0 0 1-.193-1.12c1.595-2.24 3.626-4 6.043-5.232 5.06-2.592 11.538-2.608 16.614-.016a16.69 16.69 0 0 1 6.043 5.2.797.797 0 0 1-.193 1.12.807.807 0 0 1-1.129-.192c-1.45-2.016-3.287-3.6-5.462-4.704-4.625-2.352-10.54-2.352-15.148.016C4.727 8.4 2.89 10 1.44 12.016c-.129.224-.37.336-.628.336zm10.072 19.312a.758.758 0 0 1-.564-.24C8.916 30.032 8.16 29.136 7.08 27.2c-1.112-1.968-1.692-4.368-1.692-6.944 0-4.752 4.093-8.624 9.121-8.624 5.028 0 9.12 3.872 9.12 8.624 0 .448-.354.8-.805.8a.795.795 0 0 1-.806-.8c0-3.872-3.368-7.024-7.509-7.024s-7.51 3.152-7.51 7.024c0 2.304.516 4.432 1.5 6.16 1.03 1.84 1.74 2.624 2.98 3.872a.817.817 0 0 1 0 1.136.887.887 0 0 1-.596.24zm11.554-2.96c-1.917 0-3.61-.48-4.995-1.424-2.401-1.616-3.835-4.24-3.835-7.024 0-.448.354-.8.805-.8.452 0 .806.352.806.8 0 2.256 1.16 4.384 3.126 5.696 1.144.768 2.482 1.136 4.093 1.136.387 0 1.032-.048 1.676-.16a.803.803 0 0 1 .935.656.798.798 0 0 1-.66.928 11.08 11.08 0 0 1-1.95.192zM19.197 32a.95.95 0 0 1-.21-.032c-2.561-.704-4.237-1.648-5.994-3.36a11.633 11.633 0 0 1-3.497-8.352c0-2.592 2.224-4.704 4.964-4.704s4.963 2.112 4.963 4.704c0 1.712 1.499 3.104 3.352 3.104 1.853 0 3.352-1.392 3.352-3.104 0-6.032-5.238-10.928-11.683-10.928-4.577 0-8.767 2.528-10.652 6.448-.628 1.296-.95 2.816-.95 4.48 0 1.248.112 3.216 1.079 5.776a.78.78 0 0 1-.467 1.024.8.8 0 0 1-1.032-.464c-.79-2.096-1.176-4.176-1.176-6.336 0-1.92.37-3.664 1.096-5.184 2.143-4.464 6.897-7.36 12.102-7.36 7.332 0 13.294 5.616 13.294 12.528 0 2.592-2.224 4.704-4.963 4.704-2.74 0-4.963-2.112-4.963-4.704 0-1.712-1.5-3.104-3.352-3.104-1.853 0-3.352 1.392-3.352 3.104a10.04 10.04 0 0 0 3.013 7.216c1.531 1.504 2.998 2.336 5.27 2.96.435.112.677.56.564.976a.785.785 0 0 1-.758.608z"/>
</svg>
